<svg width="56" height="16" viewBox="0 0 56 16" fill="none" xmlns="http://www.w3.org/2000/svg">
<path d="M20.7383 10.2955H24.8761V12H26.1332V10.2955H27.288V9.17898H26.1332V3.27273H24.5096L20.7383 9.23011V10.2955ZM24.8846 9.17898H22.119V9.1108L24.8164 4.84091H24.8846V9.17898ZM29.3015 12.081C29.766 12.081 30.1538 11.7017 30.1538 11.2287C30.1538 10.7642 29.766 10.3807 29.3015 10.3807C28.8327 10.3807 28.4492 10.7642 28.4492 11.2287C28.4492 11.7017 28.8327 12.081 29.3015 12.081ZM34.5771 12.1193C36.3583 12.1193 37.6665 11.054 37.6623 9.60511C37.6665 8.50142 36.9975 7.70881 35.8384 7.52983V7.46165C36.7504 7.22727 37.3427 6.51136 37.3384 5.53125C37.3427 4.24858 36.2901 3.15341 34.6112 3.15341C33.0089 3.15341 31.7219 4.12074 31.6793 5.53977H32.9535C32.9833 4.73864 33.7376 4.25284 34.5941 4.25284C35.4847 4.25284 36.0685 4.79403 36.0643 5.59943C36.0685 6.44318 35.391 6.99716 34.4237 6.99716H33.6864V8.07102H34.4237C35.6339 8.07102 36.3327 8.68466 36.3327 9.5625C36.3327 10.4105 35.5955 10.9858 34.5685 10.9858C33.6225 10.9858 32.8853 10.5 32.8342 9.72443H31.4961C31.5515 11.1477 32.8129 12.1193 34.5771 12.1193ZM42.32 12.1193C44.1438 12.1364 45.354 10.8239 45.3498 9.14915C45.354 7.47869 44.1396 6.28125 42.6268 6.28125C41.7063 6.28125 40.9094 6.72443 40.462 7.46165H40.3981C40.4023 5.48011 41.1523 4.30398 42.4308 4.30398C43.2702 4.30398 43.7987 4.81534 43.9776 5.53977H45.2773C45.0771 4.15909 43.9904 3.15341 42.4308 3.15341C40.4023 3.15341 39.1367 4.89631 39.1367 7.9304C39.1325 11.1435 40.7688 12.1065 42.32 12.1193ZM42.3157 11.0114C41.3015 11.0114 40.56 10.1591 40.56 9.17898C40.5643 8.20312 41.3398 7.35085 42.3455 7.35085C43.3427 7.35085 44.0756 8.15625 44.0714 9.16619C44.0756 10.1974 43.3129 11.0114 42.3157 11.0114ZM51.4574 10.3636C51.4616 11.348 52.0795 12.179 53.2344 12.179C54.3764 12.179 55.0028 11.348 55.0028 10.3636V9.90341C55.0028 8.91477 54.3935 8.08807 53.2344 8.08807C52.0966 8.08807 51.4616 8.91903 51.4574 9.90341V10.3636ZM47.0682 5.36932C47.0682 6.35369 47.6903 7.18466 48.8452 7.18466C49.983 7.18466 50.6136 6.35795 50.6094 5.36932V4.90909C50.6136 3.92045 50 3.09375 48.8452 3.09375C47.7116 3.09375 47.0682 3.92045 47.0682 4.90909V5.36932ZM47.4261 12H48.4446L54.4446 3.27273H53.4261L47.4261 12ZM52.4503 9.90341C52.4545 9.41335 52.6676 8.94034 53.2344 8.94034C53.8224 8.94034 54.0057 9.41335 54.0057 9.90341V10.3636C54.0057 10.8537 53.8054 11.3267 53.2344 11.3267C52.6548 11.3267 52.4545 10.8494 52.4503 10.3636V9.90341ZM48.0653 4.90909C48.0653 4.4233 48.2784 3.94602 48.8452 3.94602C49.4332 3.94602 49.6165 4.41903 49.6165 4.90909V5.36932C49.6165 5.85938 49.4162 6.33239 48.8452 6.33239C48.2656 6.33239 48.0653 5.85938 48.0653 5.36932V4.90909Z" fill="#20BF6B"/>
<path d="M7.99998 14.6666C4.32665 14.6666 1.33331 11.6733 1.33331 7.99996C1.33331 4.32663 4.32665 1.33329 7.99998 1.33329C11.6733 1.33329 14.6666 4.32663 14.6666 7.99996C14.6666 11.6733 11.6733 14.6666 7.99998 14.6666ZM10.7066 6.80663C10.6066 6.70663 10.48 6.65996 10.3533 6.65996C10.2266 6.65996 10.1 6.70663 9.99998 6.80663L7.99998 8.80663L5.99998 6.80663C5.80665 6.61329 5.48665 6.61329 5.29331 6.80663C5.09998 6.99996 5.09998 7.31996 5.29331 7.51329L7.64665 9.86663C7.83998 10.06 8.15998 10.06 8.35331 9.86663L10.7066 7.51329C10.9 7.31329 10.9 6.99996 10.7066 6.80663Z" fill="#20BF6B"/>
</svg>
