<svg width="56" height="16" viewBox="0 0 56 16" fill="none" xmlns="http://www.w3.org/2000/svg">
<path d="M24.0813 12.1193C25.8967 12.1193 27.1793 11.0881 27.1879 9.6733C27.1793 8.57386 26.408 7.64915 25.4322 7.47443V7.4233C26.2802 7.21875 26.8555 6.42188 26.864 5.48011C26.8555 4.14631 25.6793 3.15341 24.0813 3.15341C22.4663 3.15341 21.2901 4.14631 21.2987 5.48011C21.2901 6.41761 21.8654 7.21875 22.7305 7.4233V7.47443C21.7376 7.64915 20.9663 8.57386 20.9748 9.6733C20.9663 11.0881 22.2489 12.1193 24.0813 12.1193ZM24.0813 11.0412C22.9904 11.0412 22.3001 10.4616 22.3086 9.58807C22.3001 8.6804 23.0501 8.03267 24.0813 8.03267C25.0955 8.03267 25.8455 8.6804 25.854 9.58807C25.8455 10.4616 25.1594 11.0412 24.0813 11.0412ZM24.0813 6.98011C23.1992 6.98011 22.5728 6.42188 22.5813 5.59091C22.5728 4.77273 23.1779 4.23153 24.0813 4.23153C24.9677 4.23153 25.5728 4.77273 25.5813 5.59091C25.5728 6.42188 24.9506 6.98011 24.0813 6.98011ZM29.3015 12.081C29.766 12.081 30.1538 11.7017 30.1538 11.2287C30.1538 10.7642 29.766 10.3807 29.3015 10.3807C28.8327 10.3807 28.4492 10.7642 28.4492 11.2287C28.4492 11.7017 28.8327 12.081 29.3015 12.081ZM34.5771 12.1193C36.3583 12.1193 37.6665 11.054 37.6623 9.60511C37.6665 8.50142 36.9975 7.70881 35.8384 7.52983V7.46165C36.7504 7.22727 37.3427 6.51136 37.3384 5.53125C37.3427 4.24858 36.2901 3.15341 34.6112 3.15341C33.0089 3.15341 31.7219 4.12074 31.6793 5.53977H32.9535C32.9833 4.73864 33.7376 4.25284 34.5941 4.25284C35.4847 4.25284 36.0685 4.79403 36.0643 5.59943C36.0685 6.44318 35.391 6.99716 34.4237 6.99716H33.6864V8.07102H34.4237C35.6339 8.07102 36.3327 8.68466 36.3327 9.5625C36.3327 10.4105 35.5955 10.9858 34.5685 10.9858C33.6225 10.9858 32.8853 10.5 32.8342 9.72443H31.4961C31.5515 11.1477 32.8129 12.1193 34.5771 12.1193ZM42.32 12.1193C44.1438 12.1364 45.354 10.8239 45.3498 9.14915C45.354 7.47869 44.1396 6.28125 42.6268 6.28125C41.7063 6.28125 40.9094 6.72443 40.462 7.46165H40.3981C40.4023 5.48011 41.1523 4.30398 42.4308 4.30398C43.2702 4.30398 43.7987 4.81534 43.9776 5.53977H45.2773C45.0771 4.15909 43.9904 3.15341 42.4308 3.15341C40.4023 3.15341 39.1367 4.89631 39.1367 7.9304C39.1325 11.1435 40.7688 12.1065 42.32 12.1193ZM42.3157 11.0114C41.3015 11.0114 40.56 10.1591 40.56 9.17898C40.5643 8.20312 41.3398 7.35085 42.3455 7.35085C43.3427 7.35085 44.0756 8.15625 44.0714 9.16619C44.0756 10.1974 43.3129 11.0114 42.3157 11.0114ZM51.4574 10.3636C51.4616 11.348 52.0795 12.179 53.2344 12.179C54.3764 12.179 55.0028 11.348 55.0028 10.3636V9.90341C55.0028 8.91477 54.3935 8.08807 53.2344 8.08807C52.0966 8.08807 51.4616 8.91903 51.4574 9.90341V10.3636ZM47.0682 5.36932C47.0682 6.35369 47.6903 7.18466 48.8452 7.18466C49.983 7.18466 50.6136 6.35795 50.6094 5.36932V4.90909C50.6136 3.92045 50 3.09375 48.8452 3.09375C47.7116 3.09375 47.0682 3.92045 47.0682 4.90909V5.36932ZM47.4261 12H48.4446L54.4446 3.27273H53.4261L47.4261 12ZM52.4503 9.90341C52.4545 9.41335 52.6676 8.94034 53.2344 8.94034C53.8224 8.94034 54.0057 9.41335 54.0057 9.90341V10.3636C54.0057 10.8537 53.8054 11.3267 53.2344 11.3267C52.6548 11.3267 52.4545 10.8494 52.4503 10.3636V9.90341ZM48.0653 4.90909C48.0653 4.4233 48.2784 3.94602 48.8452 3.94602C49.4332 3.94602 49.6165 4.41903 49.6165 4.90909V5.36932C49.6165 5.85938 49.4162 6.33239 48.8452 6.33239C48.2656 6.33239 48.0653 5.85938 48.0653 5.36932V4.90909Z" fill="#20BF6B"/>
<path d="M7.99998 1.33337C4.32665 1.33337 1.33331 4.32671 1.33331 8.00004C1.33331 11.6734 4.32665 14.6667 7.99998 14.6667C11.6733 14.6667 14.6666 11.6734 14.6666 8.00004C14.6666 4.32671 11.6733 1.33337 7.99998 1.33337ZM10.7066 9.19337C10.6066 9.29337 10.48 9.34004 10.3533 9.34004C10.2266 9.34004 10.1 9.29337 9.99998 9.19337L7.99998 7.19337L5.99998 9.19337C5.80665 9.38671 5.48665 9.38671 5.29331 9.19337C5.09998 9.00004 5.09998 8.68004 5.29331 8.48671L7.64665 6.13337C7.83998 5.94004 8.15998 5.94004 8.35331 6.13337L10.7066 8.48671C10.9 8.68671 10.9 9.00004 10.7066 9.19337Z" fill="#20BF6B"/>
</svg>
