<svg width="53" height="16" viewBox="0 0 53 16" fill="none" xmlns="http://www.w3.org/2000/svg">
<path d="M24.1474 12.1449C26.163 12.1449 27.3434 10.5 27.3434 7.64062C27.3434 4.80256 26.146 3.15341 24.1474 3.15341C22.1445 3.15341 20.9513 4.7983 20.9471 7.64062C20.9471 10.4957 22.1275 12.1406 24.1474 12.1449ZM24.1474 11.0071C22.967 11.0071 22.2553 9.82244 22.2553 7.64062C22.2596 5.46733 22.9712 4.26989 24.1474 4.26989C25.3192 4.26989 26.0352 5.46733 26.0352 7.64062C26.0352 9.82244 25.3235 11.0071 24.1474 11.0071ZM29.3835 12.081C29.848 12.081 30.2358 11.7017 30.2358 11.2287C30.2358 10.7642 29.848 10.3807 29.3835 10.3807C28.9148 10.3807 28.5312 10.7642 28.5312 11.2287C28.5312 11.7017 28.9148 12.081 29.3835 12.081ZM34.1818 3.27273H32.8991L30.7216 4.69602V5.95739L32.8097 4.59375H32.8608V12H34.1818V3.27273ZM36.5426 12H42.2869V10.8707H38.358V10.8068L40.0923 8.99148C41.6903 7.37642 42.1463 6.60511 42.1463 5.62926C42.1463 4.22727 41.0043 3.15341 39.3594 3.15341C37.7273 3.15341 36.5341 4.21023 36.5341 5.80398H37.7912C37.7869 4.86648 38.392 4.25284 39.3338 4.25284C40.2202 4.25284 40.8935 4.7983 40.8935 5.66761C40.8935 6.43892 40.4332 6.9929 39.4957 7.9858L36.5426 11.0455V12ZM48.4574 10.3636C48.4616 11.348 49.0795 12.179 50.2344 12.179C51.3764 12.179 52.0028 11.348 52.0028 10.3636V9.90341C52.0028 8.91477 51.3935 8.08807 50.2344 8.08807C49.0966 8.08807 48.4616 8.91903 48.4574 9.90341V10.3636ZM44.0682 5.36932C44.0682 6.35369 44.6903 7.18466 45.8452 7.18466C46.983 7.18466 47.6136 6.35795 47.6094 5.36932V4.90909C47.6136 3.92045 47 3.09375 45.8452 3.09375C44.7116 3.09375 44.0682 3.92045 44.0682 4.90909V5.36932ZM44.4261 12H45.4446L51.4446 3.27273H50.4261L44.4261 12ZM49.4503 9.90341C49.4545 9.41335 49.6676 8.94034 50.2344 8.94034C50.8224 8.94034 51.0057 9.41335 51.0057 9.90341V10.3636C51.0057 10.8537 50.8054 11.3267 50.2344 11.3267C49.6548 11.3267 49.4545 10.8494 49.4503 10.3636V9.90341ZM45.0653 4.90909C45.0653 4.4233 45.2784 3.94602 45.8452 3.94602C46.4332 3.94602 46.6165 4.41903 46.6165 4.90909V5.36932C46.6165 5.85938 46.4162 6.33239 45.8452 6.33239C45.2656 6.33239 45.0653 5.85938 45.0653 5.36932V4.90909Z" fill="#20BF6B"/>
<path d="M7.99998 1.33337C4.32665 1.33337 1.33331 4.32671 1.33331 8.00004C1.33331 11.6734 4.32665 14.6667 7.99998 14.6667C11.6733 14.6667 14.6666 11.6734 14.6666 8.00004C14.6666 4.32671 11.6733 1.33337 7.99998 1.33337ZM10.7066 9.19337C10.6066 9.29337 10.48 9.34004 10.3533 9.34004C10.2266 9.34004 10.1 9.29337 9.99998 9.19337L7.99998 7.19337L5.99998 9.19337C5.80665 9.38671 5.48665 9.38671 5.29331 9.19337C5.09998 9.00004 5.09998 8.68004 5.29331 8.48671L7.64665 6.13337C7.83998 5.94004 8.15998 5.94004 8.35331 6.13337L10.7066 8.48671C10.9 8.68671 10.9 9.00004 10.7066 9.19337Z" fill="#20BF6B"/>
</svg>
