<svg width="54" height="16" viewBox="0 0 54 16" fill="none" xmlns="http://www.w3.org/2000/svg">
<path d="M24.5998 3.27273V12H23.2788V4.59375H23.2276L21.1396 5.95739V4.69602L23.3171 3.27273H24.5998ZM27.3132 12.081C27.0803 12.081 26.88 11.9986 26.7124 11.8338C26.5447 11.6662 26.4609 11.4645 26.4609 11.2287C26.4609 10.9957 26.5447 10.7969 26.7124 10.6321C26.88 10.4645 27.0803 10.3807 27.3132 10.3807C27.5462 10.3807 27.7464 10.4645 27.9141 10.6321C28.0817 10.7969 28.1655 10.9957 28.1655 11.2287C28.1655 11.3849 28.1257 11.5284 28.0462 11.6591C27.9695 11.7869 27.8672 11.8892 27.7393 11.9659C27.6115 12.0426 27.4695 12.081 27.3132 12.081ZM32.5771 12.1193C31.9918 12.1193 31.4691 12.0185 31.0089 11.8168C30.5515 11.6151 30.1893 11.3352 29.9222 10.9773C29.658 10.6165 29.516 10.1989 29.4961 9.72443H30.8342C30.8512 9.98295 30.9379 10.2074 31.0941 10.3977C31.2532 10.5852 31.4606 10.7301 31.7163 10.8324C31.9719 10.9347 32.256 10.9858 32.5685 10.9858C32.9123 10.9858 33.2163 10.9261 33.4805 10.8068C33.7475 10.6875 33.9563 10.5213 34.1069 10.3082C34.2575 10.0923 34.3327 9.84375 34.3327 9.5625C34.3327 9.26989 34.2575 9.01278 34.1069 8.79119C33.9592 8.56676 33.7418 8.39062 33.4549 8.26278C33.1708 8.13494 32.8271 8.07102 32.4237 8.07102H31.6864V6.99716H32.4237C32.7475 6.99716 33.0316 6.93892 33.2759 6.82244C33.5231 6.70597 33.7163 6.54403 33.8555 6.33665C33.9947 6.12642 34.0643 5.88068 34.0643 5.59943C34.0643 5.32955 34.0032 5.09517 33.881 4.89631C33.7617 4.6946 33.5913 4.53693 33.3697 4.4233C33.1509 4.30966 32.8924 4.25284 32.5941 4.25284C32.31 4.25284 32.0444 4.3054 31.7972 4.41051C31.5529 4.51278 31.354 4.66051 31.2006 4.85369C31.0472 5.04403 30.9648 5.27273 30.9535 5.53977H29.6793C29.6935 5.06818 29.8327 4.65341 30.0969 4.29545C30.364 3.9375 30.7163 3.65767 31.1538 3.45597C31.5913 3.25426 32.0771 3.15341 32.6112 3.15341C33.1708 3.15341 33.6538 3.26278 34.06 3.48153C34.4691 3.69744 34.7844 3.9858 35.006 4.34659C35.2305 4.70739 35.3413 5.10227 35.3384 5.53125C35.3413 6.01989 35.2049 6.43466 34.9293 6.77557C34.6566 7.11648 34.293 7.34517 33.8384 7.46165V7.52983C34.418 7.6179 34.8668 7.84801 35.185 8.22017C35.506 8.59233 35.6651 9.05398 35.6623 9.60511C35.6651 10.0852 35.5316 10.5156 35.2617 10.8963C34.9947 11.277 34.6296 11.5767 34.1665 11.7955C33.7035 12.0114 33.1737 12.1193 32.5771 12.1193ZM40.32 12.1193C39.9308 12.1136 39.5472 12.0426 39.1694 11.9062C38.7944 11.7699 38.4535 11.5426 38.1467 11.2244C37.8398 10.9062 37.5941 10.4787 37.4094 9.94176C37.2276 9.40483 37.1367 8.73437 37.1367 7.9304C37.1367 7.16903 37.212 6.4929 37.3626 5.90199C37.516 5.31108 37.7362 4.8125 38.0231 4.40625C38.31 3.99716 38.6566 3.68608 39.0629 3.47301C39.4691 3.25994 39.9251 3.15341 40.4308 3.15341C40.9506 3.15341 41.4123 3.25568 41.8157 3.46023C42.2191 3.66477 42.5458 3.94744 42.7958 4.30824C43.0487 4.66903 43.2092 5.07955 43.2773 5.53977H41.9776C41.8896 5.17614 41.7148 4.87926 41.4535 4.64915C41.1921 4.41903 40.8512 4.30398 40.4308 4.30398C39.7915 4.30398 39.293 4.58239 38.935 5.1392C38.5799 5.69602 38.4009 6.47017 38.3981 7.46165H38.462C38.6126 7.21449 38.7972 7.00426 39.016 6.83097C39.2376 6.65483 39.4847 6.51989 39.7575 6.42614C40.033 6.32955 40.3228 6.28125 40.6268 6.28125C41.1325 6.28125 41.5898 6.40483 41.9989 6.65199C42.4109 6.89631 42.739 7.23437 42.9833 7.66619C43.2276 8.09801 43.3498 8.59233 43.3498 9.14915C43.3498 9.70597 43.2234 10.2102 42.9705 10.6619C42.7205 11.1136 42.3683 11.4716 41.9137 11.7358C41.4592 11.9972 40.9279 12.125 40.32 12.1193ZM40.3157 11.0114C40.6509 11.0114 40.9506 10.929 41.2148 10.7642C41.479 10.5994 41.6879 10.3778 41.8413 10.0994C41.9947 9.82102 42.0714 9.50994 42.0714 9.16619C42.0714 8.83097 41.9961 8.52557 41.8455 8.25C41.6978 7.97443 41.4933 7.75568 41.2319 7.59375C40.9734 7.43182 40.6779 7.35085 40.3455 7.35085C40.0927 7.35085 39.8583 7.39915 39.6424 7.49574C39.4293 7.59233 39.2418 7.72585 39.0799 7.89631C38.918 8.06676 38.7901 8.26278 38.6964 8.48438C38.6055 8.70312 38.56 8.93466 38.56 9.17898C38.56 9.50568 38.6353 9.80824 38.7859 10.0866C38.9393 10.3651 39.1481 10.5895 39.4123 10.7599C39.6793 10.9276 39.9805 11.0114 40.3157 11.0114ZM49.4574 10.3636V9.90341C49.4574 9.57386 49.5256 9.27273 49.6619 9C49.8011 8.72443 50.0028 8.50426 50.267 8.33949C50.5341 8.17187 50.8565 8.08807 51.2344 8.08807C51.6207 8.08807 51.9446 8.17045 52.206 8.33523C52.4673 8.5 52.6648 8.72017 52.7983 8.99574C52.9347 9.27131 53.0028 9.57386 53.0028 9.90341V10.3636C53.0028 10.6932 52.9347 10.9957 52.7983 11.2713C52.6619 11.544 52.4616 11.7642 52.1974 11.9318C51.9361 12.0966 51.6151 12.179 51.2344 12.179C50.8509 12.179 50.527 12.0966 50.2628 11.9318C49.9986 11.7642 49.7983 11.544 49.6619 11.2713C49.5256 10.9957 49.4574 10.6932 49.4574 10.3636ZM50.4503 9.90341V10.3636C50.4503 10.608 50.5085 10.8295 50.625 11.0284C50.7415 11.2273 50.9446 11.3267 51.2344 11.3267C51.5213 11.3267 51.7216 11.2273 51.8352 11.0284C51.9489 10.8295 52.0057 10.608 52.0057 10.3636V9.90341C52.0057 9.65909 51.9503 9.4375 51.8395 9.23864C51.7315 9.03977 51.5298 8.94034 51.2344 8.94034C50.9503 8.94034 50.7486 9.03977 50.6293 9.23864C50.5099 9.4375 50.4503 9.65909 50.4503 9.90341ZM45.0682 5.36932V4.90909C45.0682 4.57955 45.1364 4.27699 45.2727 4.00142C45.4119 3.72585 45.6136 3.50568 45.8778 3.34091C46.1449 3.17614 46.4673 3.09375 46.8452 3.09375C47.2315 3.09375 47.5554 3.17614 47.8168 3.34091C48.0781 3.50568 48.2756 3.72585 48.4091 4.00142C48.5426 4.27699 48.6094 4.57955 48.6094 4.90909V5.36932C48.6094 5.69886 48.5412 6.00142 48.4048 6.27699C48.2713 6.54972 48.0724 6.76989 47.8082 6.9375C47.5469 7.10227 47.2259 7.18466 46.8452 7.18466C46.4588 7.18466 46.1335 7.10227 45.8693 6.9375C45.608 6.76989 45.4091 6.54972 45.2727 6.27699C45.1364 6.00142 45.0682 5.69886 45.0682 5.36932ZM46.0653 4.90909V5.36932C46.0653 5.61364 46.1222 5.83523 46.2358 6.03409C46.3523 6.23295 46.5554 6.33239 46.8452 6.33239C47.1293 6.33239 47.3281 6.23295 47.4418 6.03409C47.5582 5.83523 47.6165 5.61364 47.6165 5.36932V4.90909C47.6165 4.66477 47.5611 4.44318 47.4503 4.24432C47.3395 4.04545 47.1378 3.94602 46.8452 3.94602C46.5611 3.94602 46.3594 4.04545 46.2401 4.24432C46.1236 4.44318 46.0653 4.66477 46.0653 4.90909ZM45.473 12L51.473 3.27273H52.4915L46.4915 12H45.473Z" fill="#EB3B5A"/>
<path d="M7.99998 14.6666C4.32665 14.6666 1.33331 11.6733 1.33331 7.99996C1.33331 4.32663 4.32665 1.33329 7.99998 1.33329C11.6733 1.33329 14.6666 4.32663 14.6666 7.99996C14.6666 11.6733 11.6733 14.6666 7.99998 14.6666ZM10.7066 6.80663C10.6066 6.70663 10.48 6.65996 10.3533 6.65996C10.2266 6.65996 10.1 6.70663 9.99998 6.80663L7.99998 8.80663L5.99998 6.80663C5.80665 6.61329 5.48665 6.61329 5.29331 6.80663C5.09998 6.99996 5.09998 7.31996 5.29331 7.51329L7.64665 9.86663C7.83998 10.06 8.15998 10.06 8.35331 9.86663L10.7066 7.51329C10.9 7.31329 10.9 6.99996 10.7066 6.80663Z" fill="#EB3B5A"/>
</svg>
