<svg width="285" height="38" viewBox="0 0 285 38" fill="none" xmlns="http://www.w3.org/2000/svg">
<rect width="285" height="38" rx="12" fill="#724BF2"/>
<path d="M121.103 15.2727H119.368L122.441 24H124.392L127.469 15.2727H125.73L123.463 22.142H123.374L121.103 15.2727ZM128.55 24H130.093V17.4545H128.55V24ZM129.326 16.5256C129.816 16.5256 130.217 16.1506 130.217 15.6903C130.217 15.2259 129.816 14.8509 129.326 14.8509C128.832 14.8509 128.431 15.2259 128.431 15.6903C128.431 16.1506 128.832 16.5256 129.326 16.5256ZM134.577 24.1278C136.103 24.1278 137.151 23.3821 137.424 22.2443L135.983 22.0824C135.775 22.6364 135.263 22.9261 134.598 22.9261C133.601 22.9261 132.941 22.2699 132.928 21.1491H137.488V20.6761C137.488 18.3793 136.107 17.3693 134.496 17.3693C132.621 17.3693 131.398 18.7457 131.398 20.7656C131.398 22.8196 132.604 24.1278 134.577 24.1278ZM132.932 20.1094C132.979 19.2741 133.597 18.571 134.517 18.571C135.404 18.571 136 19.2188 136.009 20.1094H132.932ZM140.108 24H141.719L142.946 19.5767H143.036L144.263 24H145.87L147.723 17.4545H146.147L145.013 22.0312H144.949L143.773 17.4545H142.218L141.042 22.0568H140.982L139.831 17.4545H138.259L140.108 24ZM152.966 24L153.686 21.848H156.967L157.692 24H159.379L156.303 15.2727H154.351L151.278 24H152.966ZM154.112 20.5781L155.293 17.0625H155.361L156.541 20.5781H154.112ZM162.003 15.2727H160.461V24H162.003V15.2727ZM165.132 15.2727H163.589V24H165.132V15.2727Z" fill="white"/>
</svg>
