<svg width="74" height="19" viewBox="0 0 74 19" fill="none" xmlns="http://www.w3.org/2000/svg">
<path d="M6.70068 9.27687C6.70068 8.97307 6.95262 8.72114 7.25641 8.72114H11.3169V2.45251C11.3095 2.09685 11.028 1.81528 10.6723 1.81528C6.30797 1.81528 3.26257 4.86067 3.26257 9.225C3.26257 13.5893 6.30797 16.6347 10.6723 16.6347C11.0206 16.6347 11.3095 16.3532 11.3095 15.9975V9.82519H7.25641C6.94521 9.8326 6.70068 9.58067 6.70068 9.27687Z" fill="#EB3B5A"/>
<path d="M16.0814 8.88415L13.977 6.77238C13.7621 6.5575 13.4065 6.5575 13.1916 6.77238C12.9767 6.98726 12.9767 7.34293 13.1916 7.55781L14.3475 8.71373H11.3095V9.82519H14.3401L13.1842 10.9811C12.9693 11.196 12.9693 11.5517 13.1842 11.7665C13.2953 11.8777 13.4361 11.9295 13.5769 11.9295C13.7177 11.9295 13.8585 11.8777 13.9696 11.7665L16.074 9.65477C16.2963 9.44729 16.2963 9.09904 16.0814 8.88415Z" fill="#EB3B5A"/>
<path d="M34.4119 13.5562H39.6197V12.4364H35.7128V4.93402H34.4119V13.5562ZM43.7266 13.6868C45.5496 13.6868 46.7411 12.3522 46.7411 10.3524C46.7411 8.33997 45.5496 7.00538 43.7266 7.00538C41.9037 7.00538 40.7122 8.33997 40.7122 10.3524C40.7122 12.3522 41.9037 13.6868 43.7266 13.6868ZM43.7309 12.63C42.5394 12.63 41.9837 11.5901 41.9837 10.3482C41.9837 9.11041 42.5394 8.05789 43.7309 8.05789C44.9139 8.05789 45.4696 9.11041 45.4696 10.3482C45.4696 11.5901 44.9139 12.63 43.7309 12.63ZM50.8574 16.116C52.5036 16.116 53.775 15.3624 53.775 13.6994V7.08958H52.5415V8.13788H52.4489C52.2257 7.73793 51.7795 7.00538 50.5754 7.00538C49.0134 7.00538 47.8641 8.23893 47.8641 10.2976C47.8641 12.3606 49.0387 13.4594 50.567 13.4594C51.7542 13.4594 52.2131 12.79 52.4404 12.3774H52.5204V13.6489C52.5204 14.6635 51.8258 15.1013 50.8701 15.1013C49.8218 15.1013 49.4134 14.5751 49.1903 14.2046L48.1083 14.6509C48.4493 15.4424 49.3124 16.116 50.8574 16.116ZM50.8448 12.4153C49.7207 12.4153 49.1355 11.5523 49.1355 10.2808C49.1355 9.03884 49.7081 8.07473 50.8448 8.07473C51.9436 8.07473 52.5331 8.97148 52.5331 10.2808C52.5331 11.6154 51.931 12.4153 50.8448 12.4153ZM58.1872 13.6868C60.0101 13.6868 61.2016 12.3522 61.2016 10.3524C61.2016 8.33997 60.0101 7.00538 58.1872 7.00538C56.3642 7.00538 55.1728 8.33997 55.1728 10.3524C55.1728 12.3522 56.3642 13.6868 58.1872 13.6868ZM58.1914 12.63C56.9999 12.63 56.4442 11.5901 56.4442 10.3482C56.4442 9.11041 56.9999 8.05789 58.1914 8.05789C59.3744 8.05789 59.9301 9.11041 59.9301 10.3482C59.9301 11.5901 59.3744 12.63 58.1914 12.63ZM66.7031 10.8744C66.7073 11.9733 65.8906 12.4953 65.1833 12.4953C64.4044 12.4953 63.8655 11.9312 63.8655 11.0513V7.08958H62.6067V11.2028C62.6067 12.8069 63.4866 13.6404 64.7286 13.6404C65.7011 13.6404 66.3621 13.1268 66.661 12.4364H66.7284V13.5562H67.9661V7.08958H66.7031V10.8744ZM72.6761 7.08958H71.35V5.54027H70.0912V7.08958H69.1439V8.09999H70.0912V11.9185C70.0869 13.0931 70.9837 13.6615 71.9773 13.6404C72.3772 13.6362 72.6467 13.5605 72.794 13.5057L72.5667 12.4658C72.4825 12.4827 72.3267 12.5206 72.1246 12.5206C71.7162 12.5206 71.35 12.3858 71.35 11.6575V8.09999H72.6761V7.08958Z" fill="#EB3B5A"/>
</svg>
